<?xml version="1.0" encoding="utf-8"?>
<!-- Generator: Adobe Illustrator 27.5.0, SVG Export Plug-In . SVG Version: 6.00 Build 0)  -->
<svg version="1.1" xmlns="http://www.w3.org/2000/svg" xmlns:xlink="http://www.w3.org/1999/xlink" x="0px" y="0px"
	 viewBox="0 0 500 500" style="enable-background:new 0 0 500 500;" xml:space="preserve">
<g id="BACKGROUND">
	<g>
		<rect style="fill:#FFFFFF;" width="500" height="500"/>
	</g>
</g>
<g id="OBJECTS">
	<g>
		<g>
			<polygon style="fill:#2194A7;" points="331.615,262.37 189.062,404.92 193.243,405.448 216.34,382.351 216.339,382.35 
				305.575,293.116 305.575,293.116 333.968,264.723 340.305,258.386 339.01,254.975 			"/>
			<polygon style="fill:#2194A7;" points="338.916,272.915 338.916,272.915 204.909,406.92 209.09,407.448 234.187,382.351 
				234.186,382.35 305.575,310.963 305.575,310.963 345.217,271.321 343.921,267.91 			"/>
			<polygon style="fill:#2194A7;" points="348.833,280.845 334.111,295.568 220.757,408.919 224.938,409.447 252.034,382.351 
				252.033,382.35 305.575,328.81 305.575,328.81 336.464,297.921 341.269,293.116 341.269,293.116 350.128,284.257 			"/>
			<polygon style="fill:#2194A7;" points="338.916,308.61 338.916,308.609 236.604,410.919 240.785,411.446 269.881,382.351 
				269.88,382.35 305.575,346.656 305.575,346.657 355.04,297.192 353.744,293.781 			"/>
			<polygon style="fill:#2194A7;" points="358.656,306.716 335.941,329.431 252.452,412.918 256.633,413.446 287.727,382.351 
				287.727,382.351 305.575,364.504 305.575,364.504 337.627,332.453 341.269,328.81 341.269,328.81 359.951,310.128 			"/>
			<polygon style="fill:#2194A7;" points="368.479,332.587 337.594,363.473 285.374,415.69 285.375,415.69 284.148,416.918 
				288.328,417.445 302.336,403.437 302.336,403.437 305.574,400.198 305.575,400.198 339.947,365.826 341.269,364.504 
				341.269,364.504 369.775,335.999 			"/>
			<polygon style="fill:#2194A7;" points="374.686,348.932 373.39,345.521 326.66,392.251 326.66,392.251 303.221,415.69 
				303.223,415.69 299.996,418.917 304.175,419.444 341.269,382.351 341.268,382.35 			"/>
			<polygon style="fill:#2194A7;" points="157.367,400.922 161.548,401.449 180.646,382.351 180.645,382.35 305.575,257.422 
				305.575,257.422 330.362,232.635 330.482,232.515 329.187,229.104 328.009,230.281 			"/>
			<path style="fill:#2194A7;" d="M379.855,428.993c1.374,0.173,2.711,0.165,3.998,0.009l13.958-13.958
				c0.187-1.498,0.165-3.045-0.102-4.608l-5.253,5.253l0.001,0.001l-13.224,13.224L379.855,428.993z"/>
			<polygon style="fill:#2194A7;" points="331.691,422.916 335.871,423.443 376.963,382.351 376.962,382.35 384.509,374.803 
				383.214,371.392 338.916,415.69 338.917,415.69 338.916,415.692 			"/>
			<polygon style="fill:#2194A7;" points="356.762,415.69 356.763,415.691 347.539,424.915 351.718,425.443 389.421,387.74 
				388.125,384.327 			"/>
			<polygon style="fill:#2194A7;" points="374.61,415.69 374.611,415.69 363.386,426.915 367.566,427.442 394.332,400.676 
				393.037,397.263 			"/>
			<polygon style="fill:#2194A7;" points="309.54,177.361 285.374,201.525 285.375,201.527 123.177,363.726 93.977,392.924 
				98.158,393.451 125.53,366.079 127.105,364.504 127.105,364.504 305.575,186.034 305.575,186.034 310.835,180.774 			"/>
			<path style="fill:#2194A7;" d="M259.981,71.004c-1.604-0.195-3.234-0.158-4.832,0.125L238.648,87.63l-7.898,12.605
				L259.981,71.004z"/>
			<path style="fill:#2194A7;" d="M200.8,148.031l70.359-70.359c-0.65-0.935-1.383-1.777-2.185-2.522l-60.276,60.276L200.8,148.031z
				"/>
			<polygon style="fill:#2194A7;" points="170.847,195.833 198.493,168.187 198.492,168.186 276.454,90.225 275.159,86.813 
				178.75,183.221 			"/>
			<polygon style="fill:#2194A7;" points="305.575,382.351 364.863,323.063 363.568,319.652 338.916,344.304 338.916,344.303 
				268.299,414.918 272.48,415.445 			"/>
			<polygon style="fill:#2194A7;" points="303.221,272.915 173.214,402.921 177.395,403.448 198.493,382.351 198.492,382.35 
				335.393,245.451 334.098,242.039 			"/>
			<polygon style="fill:#2194A7;" points="305.575,168.187 305.924,167.838 304.628,164.426 267.527,201.525 267.529,201.527 
				124.751,344.304 124.751,344.303 78.129,390.924 82.31,391.452 91.411,382.351 			"/>
			<polygon style="fill:#2194A7;" points="129.853,397.45 144.952,382.351 144.951,382.35 305.575,221.728 305.575,221.728 
				320.659,206.644 319.363,203.233 125.671,396.922 			"/>
			<polygon style="fill:#2194A7;" points="145.7,399.45 162.799,382.351 162.798,382.35 305.575,239.575 305.575,239.575 
				325.57,219.58 324.275,216.168 141.519,398.922 			"/>
			<polygon style="fill:#2194A7;" points="127.104,382.35 315.747,193.709 314.451,190.296 303.221,201.525 303.223,201.526 
				109.824,394.923 114.005,395.451 127.105,382.351 			"/>
			<polygon style="fill:#2194A7;" points="178.292,201.525 178.294,201.527 148.796,231.025 140.897,243.63 216.34,168.187 
				216.339,168.186 281.366,103.16 280.07,99.749 			"/>
			<polygon style="fill:#2194A7;" points="196.139,201.525 196.141,201.527 124.751,272.915 124.751,272.915 118.847,278.82 
				110.948,291.426 234.187,168.187 234.186,168.186 286.277,116.096 284.982,112.684 			"/>
			<polygon style="fill:#2194A7;" points="315.844,420.917 320.023,421.444 321.523,419.944 341.269,400.198 341.269,400.198 
				359.115,382.351 359.115,382.35 379.597,361.868 378.302,358.456 326.66,410.098 326.66,410.098 321.068,415.69 321.069,415.691 
				319.17,417.591 			"/>
			<path style="fill:#2194A7;" d="M73.564,382.351L73.564,382.351l17.846-17.847l0.001,0.001l32.719-32.72l2.975-2.975l0,0
				l160.623-160.623l0-0.001l13.285-13.285l-1.295-3.412l-50.036,50.035l0.001,0.001L121.777,329.431l-55.998,55.997
				c0.737,0.825,1.561,1.578,2.467,2.241L73.564,382.351z"/>
			<polygon style="fill:#2194A7;" points="91.41,328.81 91.411,328.81 252.034,168.187 252.033,168.186 291.189,129.031 
				289.894,125.62 213.986,201.525 213.988,201.527 124.751,290.763 88.897,326.616 80.999,339.221 			"/>
			<path style="fill:#2194A7;" d="M61.743,376.323l29.667-29.667l0,0.001l178.47-178.47l-0.001-0.001l26.22-26.22l-1.295-3.411
				l-62.972,62.97l0.001,0.001L124.751,308.61v0l-62.747,62.745C61.649,373.015,61.57,374.689,61.743,376.323z"/>
		</g>
		<g>
			
				<linearGradient id="SVGID_1_" gradientUnits="userSpaceOnUse" x1="47.2277" y1="-849.1741" x2="95.9383" y2="-849.1741" gradientTransform="matrix(1 -0.3527 0 1 0 1108.8643)">
				<stop  offset="0" style="stop-color:#081B31"/>
				<stop  offset="1" style="stop-color:#070817"/>
			</linearGradient>
			<path style="fill:url(#SVGID_1_);" d="M83.383,244.917l-23.6,4.161c-6.934,1.223-12.555-3.407-12.555-10.341l0,0
				c0-6.934,5.621-13.546,12.555-14.769l23.6-4.161c6.934-1.223,12.555,3.407,12.555,10.342l0,0
				C95.938,237.082,90.317,243.695,83.383,244.917z"/>
			
				<linearGradient id="SVGID_00000122704814475770320570000005303855334372081287_" gradientUnits="userSpaceOnUse" x1="97.8247" y1="-415.4106" x2="335.6436" y2="-177.5917" gradientTransform="matrix(1 -0.1763 0 1 0 554.8292)">
				<stop  offset="0" style="stop-color:#11164A"/>
				<stop  offset="1" style="stop-color:#B31682"/>
			</linearGradient>
			<path style="fill:url(#SVGID_00000122704814475770320570000005303855334372081287_);" d="M367.374,109.27L73.735,155.93
				c-7.89,1.254-13.95,9.412-12.585,16.944l33.87,186.902l259.753-64.215l24.806-174.075
				C380.673,113.805,374.942,108.067,367.374,109.27z"/>
			<g>
				<defs>
					<path id="SVGID_00000008109122086389850890000013927631929558943922_" d="M367.374,109.27L73.735,155.93
						c-7.89,1.254-13.95,9.412-12.585,16.944l33.87,186.902l259.753-64.215l24.806-174.075
						C380.673,113.805,374.942,108.067,367.374,109.27z"/>
				</defs>
				<clipPath id="SVGID_00000168810472858523690390000006972490254051780746_">
					<use xlink:href="#SVGID_00000008109122086389850890000013927631929558943922_"  style="overflow:visible;"/>
				</clipPath>
				
					<linearGradient id="SVGID_00000124874130580346838620000016128962032369115545_" gradientUnits="userSpaceOnUse" x1="220.3352" y1="-343.5995" x2="430.5485" y2="-343.5995" gradientTransform="matrix(1 -0.1763 0 1 0 554.8292)">
					<stop  offset="0.0041" style="stop-color:#FF3EB5"/>
					<stop  offset="1" style="stop-color:#FF3A3A"/>
				</linearGradient>
				
					<path style="opacity:0.6;clip-path:url(#SVGID_00000168810472858523690390000006972490254051780746_);fill:url(#SVGID_00000124874130580346838620000016128962032369115545_);" d="
					M430.548,135.321c0,58.049-47.058,113.404-105.107,123.64c-58.049,10.236-105.107-28.525-105.107-86.574
					s47.058-113.404,105.107-123.64C383.491,38.512,430.548,77.272,430.548,135.321z"/>
			</g>
			
				<linearGradient id="SVGID_00000081628044417087674790000001158922398710059439_" gradientUnits="userSpaceOnUse" x1="95.0197" y1="-214.7794" x2="184.7412" y2="-214.7794" gradientTransform="matrix(1 -0.1763 0 1 0 554.8292)">
				<stop  offset="0" style="stop-color:#081B31"/>
				<stop  offset="1" style="stop-color:#070817"/>
			</linearGradient>
			<polygon style="fill:url(#SVGID_00000081628044417087674790000001158922398710059439_);" points="95.02,359.776 173.047,273.063 
				184.741,337.596 			"/>
			
				<linearGradient id="SVGID_00000091696791894402392480000013702234239252068241_" gradientUnits="userSpaceOnUse" x1="38.1776" y1="-338.9341" x2="307.9164" y2="-338.9341" gradientTransform="matrix(1 -0.1763 0 1 0 554.8292)">
				<stop  offset="0" style="stop-color:#FFD915"/>
				<stop  offset="1" style="stop-color:#FFB514"/>
			</linearGradient>
			<path style="fill:url(#SVGID_00000091696791894402392480000013702234239252068241_);" d="M50.955,173.985
				c-7.891,1.254-13.95,9.413-12.585,16.945l8.983,49.545l0.012-0.002c-0.081-0.562-0.138-1.137-0.138-1.736l0,0
				c0-6.934,5.621-13.546,12.555-14.769l14.349-2.53l21.806-3.845l196.18-34.592c6.233-1.099,11.522-6.604,12.423-12.93
				l3.241-22.741c1.095-7.682-4.637-13.42-12.205-12.217L50.955,173.985z"/>
			
				<linearGradient id="SVGID_00000103248234241344426760000012114848337367296643_" gradientUnits="userSpaceOnUse" x1="268.2693" y1="-306.2345" x2="379.0307" y2="-114.3901" gradientTransform="matrix(1 -0.1763 0 1 0 554.8292)">
				<stop  offset="0" style="stop-color:#0059B8"/>
				<stop  offset="1" style="stop-color:#081B31"/>
			</linearGradient>
			<path style="fill:url(#SVGID_00000103248234241344426760000012114848337367296643_);" d="M450.884,312.839l12.975-91.054
				l-290.812,51.278l15.662,86.432c1.268,6.995,7.538,11.155,14.867,9.862l232.372-40.974
				C443.442,327.063,449.8,320.444,450.884,312.839z"/>
			<g>
				<defs>
					<path id="SVGID_00000045603049766978704310000015810806054652761484_" d="M450.884,312.839l12.975-91.054l-290.812,51.278
						l15.662,86.432c1.268,6.995,7.538,11.155,14.867,9.862l232.372-40.974C443.442,327.063,449.8,320.444,450.884,312.839z"/>
				</defs>
				<clipPath id="SVGID_00000059311895874165245080000008857054902793165203_">
					<use xlink:href="#SVGID_00000045603049766978704310000015810806054652761484_"  style="overflow:visible;"/>
				</clipPath>
				
					<linearGradient id="SVGID_00000174574444883464385880000001708550115135200924_" gradientUnits="userSpaceOnUse" x1="173.1162" y1="-300.2394" x2="267.5542" y2="-136.668" gradientTransform="matrix(1 -0.1763 0 1 0 554.8292)">
					<stop  offset="0" style="stop-color:#00FFFB"/>
					<stop  offset="1" style="stop-color:#0167BA"/>
				</linearGradient>
				
					<path style="opacity:0.4;clip-path:url(#SVGID_00000059311895874165245080000008857054902793165203_);fill:url(#SVGID_00000174574444883464385880000001708550115135200924_);" d="
					M314.759,280.881c0,52.149-42.275,101.878-94.423,111.073s-94.423-25.625-94.423-77.774c0-52.148,42.275-101.877,94.423-111.073
					C272.484,193.912,314.759,228.732,314.759,280.881z"/>
			</g>
		</g>
		<g>
			<g>
				<g>
					
						<text transform="matrix(1 -0.1763 0 1 121.6989 266.537)" style="fill:#FFFFFF; font-family:'SourceSansPro-Black'; font-size:56.4583px;">SPECIAL</text>
				</g>
			</g>
			<g>
				<g>
					<g>
						<text transform="matrix(1 -0.1763 0 1 69.114 207.9401)"><tspan x="0" y="0" style="fill:#070817; font-family:'Montserrat-Bold'; font-size:25.4573px;">UP TO</tspan><tspan x="79.935" y="0" style="fill:#070817; font-family:'Montserrat-ExtraBold'; font-size:27.3358px;"> </tspan><tspan x="87.206" y="0" style="fill:#070817; font-family:'Montserrat-ExtraBold'; font-size:32.015px;">50%</tspan><tspan x="154.885" y="0" style="fill:#070817; font-family:'Montserrat-ExtraBold'; font-size:27.3358px;"> </tspan><tspan x="162.156" y="0" style="fill:#070817; font-family:'Montserrat-ExtraBold'; font-size:25.4573px;">OFF</tspan></text>
					</g>
				</g>
			</g>
			
				<text transform="matrix(1 -0.1763 0 1 208.5713 340.2346)" style="fill:#FFFFFF; font-family:'SourceSansPro-Black'; font-size:74.525px;">OFFER</text>
		</g>
		<g>
			
				<linearGradient id="SVGID_00000030480355368545723080000016565536014324747183_" gradientUnits="userSpaceOnUse" x1="39.3922" y1="-234.9462" x2="55.0634" y2="-219.2749" gradientTransform="matrix(1 -0.1763 0 1 0 554.8292)">
				<stop  offset="0" style="stop-color:#11164A"/>
				<stop  offset="1" style="stop-color:#B31682"/>
			</linearGradient>
			<path style="fill:url(#SVGID_00000030480355368545723080000016565536014324747183_);" d="M47.228,330.479
				c-6.112,1.078-11.087-3.019-11.087-9.132c0-6.114,4.975-11.964,11.087-13.042c6.112-1.078,11.087,3.019,11.087,9.132
				C58.315,323.551,53.339,329.402,47.228,330.479z M47.228,313.627c-3.18,0.561-5.765,3.603-5.765,6.782
				c0,3.179,2.585,5.31,5.765,4.749c3.181-0.561,5.765-3.603,5.765-6.782C52.993,315.197,50.409,313.066,47.228,313.627z"/>
			
				<linearGradient id="SVGID_00000070819587138899341860000006968585058871517343_" gradientUnits="userSpaceOnUse" x1="304.6878" y1="-413.9063" x2="325.6353" y2="-413.9063" gradientTransform="matrix(1 -0.1763 0 1 0 554.8292)">
				<stop  offset="0.0041" style="stop-color:#FF3EB5"/>
				<stop  offset="1" style="stop-color:#FF3A3A"/>
			</linearGradient>
			<path style="fill:url(#SVGID_00000070819587138899341860000006968585058871517343_);" d="M322.975,81.321l-5.152,0.908v-5.152
				c0-1.469-1.191-2.451-2.661-2.191c-1.469,0.259-2.661,1.66-2.661,3.13v5.152l-5.152,0.909c-1.469,0.259-2.661,1.66-2.661,3.13
				v0.001c0,1.469,1.191,2.451,2.661,2.192l5.152-0.909v5.152c0,1.469,1.191,2.451,2.661,2.192c1.47-0.259,2.661-1.661,2.661-3.13
				v-5.152l5.152-0.909c1.469-0.259,2.661-1.661,2.661-3.13v-0.001C325.635,82.043,324.444,81.062,322.975,81.321z"/>
			
				<linearGradient id="SVGID_00000087390059383350221570000018172852427315775413_" gradientUnits="userSpaceOnUse" x1="-3855.7314" y1="4009.0024" x2="-3834.7834" y2="4009.0024" gradientTransform="matrix(0.7071 0.5824 -0.7071 0.8318 5960.9644 -728.9352)">
				<stop  offset="0" style="stop-color:#11164A"/>
				<stop  offset="1" style="stop-color:#B31682"/>
			</linearGradient>
			<path style="fill:url(#SVGID_00000087390059383350221570000018172852427315775413_);" d="M414.623,368.612l-3.643-3.001
				l3.643-4.285c1.039-1.222,1.039-2.907,0-3.763c-1.039-0.856-2.724-0.558-3.763,0.664l-3.643,4.285l-3.643-3.001
				c-1.039-0.856-2.724-0.559-3.763,0.663l0,0.001c-1.039,1.222-1.039,2.907,0,3.763l3.643,3.001l-3.643,4.286
				c-1.039,1.222-1.039,2.907,0,3.763c1.039,0.856,2.724,0.559,3.763-0.663l3.643-4.286l3.643,3.001
				c1.039,0.856,2.724,0.559,3.763-0.663l0-0.001C415.662,371.153,415.662,369.468,414.623,368.612z"/>
			
				<linearGradient id="SVGID_00000086668281442572913830000004489020407026821786_" gradientUnits="userSpaceOnUse" x1="138.7345" y1="-431.6853" x2="163.755" y2="-388.3485" gradientTransform="matrix(1 -0.1763 0 1 0 554.8292)">
				<stop  offset="0" style="stop-color:#0059B8"/>
				<stop  offset="1" style="stop-color:#053467"/>
			</linearGradient>
			<path style="fill:url(#SVGID_00000086668281442572913830000004489020407026821786_);" d="M192.113,107.346
				c-2.996,1.526-4.809,4.231-6.334,6.506c-1.908,2.85-3.104,4.481-5.496,4.902c-2.392,0.422-3.588-0.787-5.496-2.964
				c-1.986-2.262-4.458-5.08-9.397-4.209c-4.936,0.87-7.407,4.559-9.391,7.522c-1.907,2.849-3.102,4.48-5.491,4.901
				c-2.385,0.421-3.579-0.789-5.484-2.963c-1.983-2.266-4.452-5.084-9.386-4.214c-4.933,0.87-7.402,4.559-9.385,7.524
				c-1.905,2.846-3.098,4.477-5.483,4.897c-2.385,0.42-3.579-0.789-5.484-2.963c-1.523-1.74-3.333-3.805-6.324-4.276
				c-1.507-0.238-3.063,1.205-3.063,2.793v0.3c0,0.985,0.669,1.677,1.595,1.848c1.432,0.264,2.46,1.352,3.889,2.983
				c1.984,2.266,4.453,5.084,9.386,4.214c4.934-0.87,7.402-4.559,9.386-7.524c1.904-2.846,3.098-4.476,5.482-4.896
				c2.384-0.42,3.578,0.788,5.483,2.963c1.983,2.266,4.453,5.084,9.387,4.214c4.937-0.87,7.408-4.56,9.393-7.525
				c1.906-2.846,3.101-4.477,5.489-4.898c2.391-0.422,3.587,0.787,5.496,2.964c1.986,2.262,4.458,5.08,9.397,4.209
				c4.938-0.871,7.41-4.56,9.397-7.523c1.431-2.137,2.462-3.589,3.896-4.358c0.929-0.498,1.599-1.428,1.599-2.415v-0.297
				C195.175,107.471,193.62,106.578,192.113,107.346z"/>
			<path style="fill:#FFD915;" d="M432.422,183.758c-2.996,1.527-4.809,4.231-6.334,6.507c-1.908,2.85-3.104,4.48-5.496,4.902
				c-2.392,0.422-3.588-0.787-5.496-2.964c-1.986-2.262-4.459-5.08-9.397-4.209c-4.936,0.87-7.407,4.559-9.391,7.522
				c-1.907,2.85-3.102,4.48-5.491,4.901c-2.385,0.421-3.579-0.788-5.484-2.963c-1.983-2.266-4.452-5.084-9.385-4.214
				c-4.933,0.87-7.402,4.559-9.385,7.524c-1.905,2.846-3.098,4.476-5.483,4.896c-2.385,0.421-3.579-0.788-5.484-2.963
				c-1.524-1.74-3.333-3.805-6.324-4.277c-1.507-0.238-3.063,1.205-3.063,2.794v0.3c0,0.985,0.669,1.676,1.596,1.848
				c1.431,0.264,2.46,1.352,3.889,2.983c1.984,2.265,4.453,5.084,9.386,4.214c4.934-0.87,7.403-4.559,9.386-7.524
				c1.904-2.846,3.098-4.476,5.482-4.896c2.384-0.42,3.578,0.788,5.483,2.963c1.983,2.265,4.453,5.084,9.387,4.214
				c4.937-0.871,7.407-4.56,9.393-7.525c1.906-2.847,3.101-4.477,5.489-4.898c2.391-0.422,3.588,0.786,5.496,2.964
				c1.986,2.262,4.458,5.08,9.397,4.209c4.938-0.871,7.41-4.561,9.397-7.523c1.431-2.137,2.462-3.589,3.897-4.359
				c0.929-0.498,1.599-1.427,1.599-2.415v-0.298C435.484,183.883,433.929,182.99,432.422,183.758z"/>
		</g>
	</g>
</g>
</svg>
